<?xml version="1.0" encoding="utf-8" standalone="no"?>
<!DOCTYPE svg PUBLIC "-//W3C//DTD SVG 1.1//EN"
  "http://www.w3.org/Graphics/SVG/1.1/DTD/svg11.dtd">
<svg xmlns:xlink="http://www.w3.org/1999/xlink" width="522.223281pt" height="245.07pt" viewBox="0 0 522.223281 245.07" xmlns="http://www.w3.org/2000/svg" version="1.1">
 <metadata>
  <rdf:RDF xmlns:dc="http://purl.org/dc/elements/1.1/" xmlns:cc="http://creativecommons.org/ns#" xmlns:rdf="http://www.w3.org/1999/02/22-rdf-syntax-ns#">
   <cc:Work>
    <dc:type rdf:resource="http://purl.org/dc/dcmitype/StillImage"/>
    <dc:date>2026-07-26T19:49:06.157977</dc:date>
    <dc:format>image/svg+xml</dc:format>
    <dc:creator>
     <cc:Agent>
      <dc:title>Matplotlib v3.11.1, https://matplotlib.org/</dc:title>
     </cc:Agent>
    </dc:creator>
   </cc:Work>
  </rdf:RDF>
 </metadata>
 <defs>
  <style type="text/css">*{stroke-linejoin: round; stroke-linecap: butt}</style>
 </defs>
 <g id="figure_1">
  <g id="patch_1">
   <path d="M 0 245.07 
L 522.223281 245.07 
L 522.223281 0 
L 0 0 
L 0 245.07 
z
" style="fill: none"/>
  </g>
  <g id="axes_1">
   <g id="patch_2">
    <path d="M 46.303281 201.24 
L 515.023281 201.24 
L 515.023281 7.2 
L 46.303281 7.2 
L 46.303281 201.24 
z
" style="fill: none"/>
   </g>
   <g id="matplotlib.axis_1">
    <g id="xtick_1">
     <g id="line2d_1">
      <path d="M 67.608736 201.24 
L 67.608736 7.2 
" clip-path="url(#p15c14b91b1)" style="fill: none; stroke: #e1e0d9; stroke-width: 0.8; stroke-linecap: square"/>
     </g>
     <g id="line2d_2">
      <defs>
       <path id="mf5212390d9" d="M 0 0 
L 0 3.5 
" style="stroke: #898781; stroke-width: 0.8"/>
      </defs>
      <g>
       <use xlink:href="#mf5212390d9" x="67.608736" y="201.24" style="fill: #898781; stroke: #898781; stroke-width: 0.8"/>
      </g>
     </g>
     <g id="text_1">
      <text style="font-size: 11px; font-family: 'Helvetica Neue', 'Arial', 'DejaVu Sans', sans-serif; text-anchor: middle; fill: #898781" x="67.608736" y="218.712" transform="rotate(-0 67.608736 218.712)">−π</text>
     </g>
    </g>
    <g id="xtick_2">
     <g id="line2d_3">
      <path d="M 280.663281 201.24 
L 280.663281 7.2 
" clip-path="url(#p15c14b91b1)" style="fill: none; stroke: #e1e0d9; stroke-width: 0.8; stroke-linecap: square"/>
     </g>
     <g id="line2d_4">
      <g>
       <use xlink:href="#mf5212390d9" x="280.663281" y="201.24" style="fill: #898781; stroke: #898781; stroke-width: 0.8"/>
      </g>
     </g>
     <g id="text_2">
      <text style="font-size: 11px; font-family: 'Helvetica Neue', 'Arial', 'DejaVu Sans', sans-serif; text-anchor: middle; fill: #898781" x="280.663281" y="218.712" transform="rotate(-0 280.663281 218.712)">0</text>
     </g>
    </g>
    <g id="xtick_3">
     <g id="line2d_5">
      <path d="M 493.717827 201.24 
L 493.717827 7.2 
" clip-path="url(#p15c14b91b1)" style="fill: none; stroke: #e1e0d9; stroke-width: 0.8; stroke-linecap: square"/>
     </g>
     <g id="line2d_6">
      <g>
       <use xlink:href="#mf5212390d9" x="493.717827" y="201.24" style="fill: #898781; stroke: #898781; stroke-width: 0.8"/>
      </g>
     </g>
     <g id="text_3">
      <text style="font-size: 11px; font-family: 'Helvetica Neue', 'Arial', 'DejaVu Sans', sans-serif; text-anchor: middle; fill: #898781" x="493.717827" y="218.712" transform="rotate(-0 493.717827 218.712)">π</text>
     </g>
    </g>
    <g id="text_4">
     <text style="font-size: 11px; font-family: 'Helvetica Neue', 'Arial', 'DejaVu Sans', sans-serif; text-anchor: middle; fill: #52514e" x="280.663281" y="235.527" transform="rotate(-0 280.663281 235.527)">energy mismatch phase per circuit  φ = ΔE·τ/ħ</text>
    </g>
   </g>
   <g id="matplotlib.axis_2">
    <g id="ytick_1">
     <g id="line2d_7">
      <path d="M 46.303281 192.42 
L 515.023281 192.42 
" clip-path="url(#p15c14b91b1)" style="fill: none; stroke: #e1e0d9; stroke-width: 0.8; stroke-linecap: square"/>
     </g>
     <g id="line2d_8">
      <defs>
       <path id="m537090b54f" d="M 0 0 
L -3.5 0 
" style="stroke: #898781; stroke-width: 0.8"/>
      </defs>
      <g>
       <use xlink:href="#m537090b54f" x="46.303281" y="192.42" style="fill: #898781; stroke: #898781; stroke-width: 0.8"/>
      </g>
     </g>
     <g id="text_5">
      <text style="font-size: 11px; font-family: 'Helvetica Neue', 'Arial', 'DejaVu Sans', sans-serif; text-anchor: end; fill: #898781" x="39.303281" y="197.656" transform="rotate(-0 39.303281 197.656)">0.0</text>
     </g>
    </g>
    <g id="ytick_2">
     <g id="line2d_9">
      <path d="M 46.303281 157.14 
L 515.023281 157.14 
" clip-path="url(#p15c14b91b1)" style="fill: none; stroke: #e1e0d9; stroke-width: 0.8; stroke-linecap: square"/>
     </g>
     <g id="line2d_10">
      <g>
       <use xlink:href="#m537090b54f" x="46.303281" y="157.14" style="fill: #898781; stroke: #898781; stroke-width: 0.8"/>
      </g>
     </g>
     <g id="text_6">
      <text style="font-size: 11px; font-family: 'Helvetica Neue', 'Arial', 'DejaVu Sans', sans-serif; text-anchor: end; fill: #898781" x="39.303281" y="162.376" transform="rotate(-0 39.303281 162.376)">0.2</text>
     </g>
    </g>
    <g id="ytick_3">
     <g id="line2d_11">
      <path d="M 46.303281 121.86 
L 515.023281 121.86 
" clip-path="url(#p15c14b91b1)" style="fill: none; stroke: #e1e0d9; stroke-width: 0.8; stroke-linecap: square"/>
     </g>
     <g id="line2d_12">
      <g>
       <use xlink:href="#m537090b54f" x="46.303281" y="121.86" style="fill: #898781; stroke: #898781; stroke-width: 0.8"/>
      </g>
     </g>
     <g id="text_7">
      <text style="font-size: 11px; font-family: 'Helvetica Neue', 'Arial', 'DejaVu Sans', sans-serif; text-anchor: end; fill: #898781" x="39.303281" y="127.096" transform="rotate(-0 39.303281 127.096)">0.4</text>
     </g>
    </g>
    <g id="ytick_4">
     <g id="line2d_13">
      <path d="M 46.303281 86.58 
L 515.023281 86.58 
" clip-path="url(#p15c14b91b1)" style="fill: none; stroke: #e1e0d9; stroke-width: 0.8; stroke-linecap: square"/>
     </g>
     <g id="line2d_14">
      <g>
       <use xlink:href="#m537090b54f" x="46.303281" y="86.58" style="fill: #898781; stroke: #898781; stroke-width: 0.8"/>
      </g>
     </g>
     <g id="text_8">
      <text style="font-size: 11px; font-family: 'Helvetica Neue', 'Arial', 'DejaVu Sans', sans-serif; text-anchor: end; fill: #898781" x="39.303281" y="91.816" transform="rotate(-0 39.303281 91.816)">0.6</text>
     </g>
    </g>
    <g id="ytick_5">
     <g id="line2d_15">
      <path d="M 46.303281 51.3 
L 515.023281 51.3 
" clip-path="url(#p15c14b91b1)" style="fill: none; stroke: #e1e0d9; stroke-width: 0.8; stroke-linecap: square"/>
     </g>
     <g id="line2d_16">
      <g>
       <use xlink:href="#m537090b54f" x="46.303281" y="51.3" style="fill: #898781; stroke: #898781; stroke-width: 0.8"/>
      </g>
     </g>
     <g id="text_9">
      <text style="font-size: 11px; font-family: 'Helvetica Neue', 'Arial', 'DejaVu Sans', sans-serif; text-anchor: end; fill: #898781" x="39.303281" y="56.536" transform="rotate(-0 39.303281 56.536)">0.8</text>
     </g>
    </g>
    <g id="ytick_6">
     <g id="line2d_17">
      <path d="M 46.303281 16.02 
L 515.023281 16.02 
" clip-path="url(#p15c14b91b1)" style="fill: none; stroke: #e1e0d9; stroke-width: 0.8; stroke-linecap: square"/>
     </g>
     <g id="line2d_18">
      <g>
       <use xlink:href="#m537090b54f" x="46.303281" y="16.02" style="fill: #898781; stroke: #898781; stroke-width: 0.8"/>
      </g>
     </g>
     <g id="text_10">
      <text style="font-size: 11px; font-family: 'Helvetica Neue', 'Arial', 'DejaVu Sans', sans-serif; text-anchor: end; fill: #898781" x="39.303281" y="21.256" transform="rotate(-0 39.303281 21.256)">1.0</text>
     </g>
    </g>
    <g id="text_11">
     <text style="font-size: 11px; font-family: 'Helvetica Neue', 'Arial', 'DejaVu Sans', sans-serif; text-anchor: middle; fill: #52514e" x="17.672" y="104.22" transform="rotate(-90 17.672 104.22)">|summed amplitude| (normalized)</text>
    </g>
   </g>
   <g id="line2d_19">
    <path d="M 67.608736 192.42 
L 75.385227 182.488249 
L 79.433263 177.677345 
L 82.842136 173.95761 
L 85.824899 171.018181 
L 88.594609 168.596987 
L 91.151263 166.656823 
L 93.494863 165.148615 
L 95.731936 163.965848 
L 97.862481 163.084156 
L 99.886499 162.475939 
L 101.910518 162.097397 
L 103.934536 161.953034 
L 105.852027 162.034958 
L 107.769518 162.330866 
L 109.793536 162.875183 
L 111.817554 163.655993 
L 113.841572 164.669912 
L 115.972118 165.983499 
L 118.20919 167.626242 
L 120.55279 169.624546 
L 123.109445 172.109944 
L 125.772627 175.012616 
L 128.75539 178.60553 
L 132.057736 182.946696 
L 135.892718 188.370233 
L 138.662427 192.366666 
L 154.641518 168.541665 
L 157.943863 164.217893 
L 160.820099 160.796616 
L 163.483281 157.970518 
L 165.826881 155.793027 
L 168.063954 154.013355 
L 170.087972 152.675278 
L 172.005463 151.661819 
L 173.816427 150.943887 
L 175.62739 150.468768 
L 177.331827 150.251737 
L 179.036263 150.264991 
L 180.634172 150.492053 
L 182.232081 150.931356 
L 183.936518 151.638109 
L 185.640954 152.59433 
L 187.34539 153.802838 
L 189.156354 155.365419 
L 191.073845 157.33391 
L 192.991336 159.625221 
L 195.015354 162.392202 
L 197.145899 165.687203 
L 199.382972 169.561801 
L 201.726572 174.065404 
L 204.283227 179.479337 
L 206.946409 185.649072 
L 209.60959 192.327679 
L 209.716118 192.235107 
L 212.805409 183.879503 
L 216.214281 174.00671 
L 220.049263 162.20353 
L 224.629936 147.354524 
L 231.128099 125.444265 
L 241.24819 91.33891 
L 245.828863 76.728601 
L 249.557318 65.538783 
L 252.859663 56.297877 
L 255.842427 48.586247 
L 258.612136 42.032197 
L 261.16879 36.549263 
L 263.51239 32.035648 
L 265.749463 28.210035 
L 267.773481 25.172911 
L 269.690972 22.680137 
L 271.501936 20.678603 
L 273.206372 19.114433 
L 274.804281 17.934063 
L 276.40219 17.033896 
L 277.893572 16.448782 
L 279.384954 16.111389 
L 280.769809 16.020635 
L 282.154663 16.144384 
L 283.539518 16.482375 
L 285.030899 17.085135 
L 286.522281 17.934063 
L 288.12019 19.114433 
L 289.718099 20.571702 
L 291.422536 22.426719 
L 293.233499 24.731165 
L 295.15099 27.536629 
L 297.175009 30.893495 
L 299.412081 35.058509 
L 301.755681 39.910007 
L 304.312336 45.738638 
L 307.082045 52.637563 
L 310.064809 60.683103 
L 313.367154 70.244841 
L 317.202136 82.068494 
L 321.782809 96.958528 
L 328.494027 119.631407 
L 337.868427 151.216384 
L 342.555627 166.210951 
L 346.497136 178.094276 
L 349.906009 187.699171 
L 351.716972 192.327679 
L 354.699736 184.881147 
L 357.469445 178.54165 
L 360.026099 173.213367 
L 362.476227 168.601231 
L 364.819827 164.657866 
L 367.056899 161.331355 
L 369.187445 158.567076 
L 371.211463 156.309268 
L 373.128954 154.50233 
L 374.939918 153.091876 
L 376.750881 151.967286 
L 378.455318 151.16737 
L 380.159754 150.614705 
L 381.86419 150.305026 
L 383.568627 150.233207 
L 385.273063 150.393288 
L 386.977499 150.778506 
L 388.788463 151.426042 
L 390.599427 152.309277 
L 392.516918 153.489319 
L 394.540936 154.99307 
L 396.778009 156.942837 
L 399.121609 159.282909 
L 401.678263 162.147411 
L 404.554499 165.708142 
L 407.856845 170.160575 
L 411.904881 176.013062 
L 418.083463 185.39363 
L 422.664136 192.366666 
L 422.87719 192.153575 
L 427.670918 185.163086 
L 431.399372 180.105704 
L 434.59519 176.130165 
L 437.471427 172.891649 
L 440.134609 170.216832 
L 442.584736 168.055984 
L 444.928336 166.275894 
L 447.165409 164.851006 
L 449.295954 163.751818 
L 451.319972 162.946282 
L 453.34399 162.37696 
L 455.368009 162.045779 
L 457.285499 161.951986 
L 459.20299 162.071109 
L 461.227009 162.425186 
L 463.251027 163.009485 
L 465.381572 163.866766 
L 467.512118 164.963963 
L 469.74919 166.362818 
L 472.199318 168.168526 
L 474.755972 170.335491 
L 477.525681 172.978002 
L 480.614972 176.241917 
L 484.130372 180.29119 
L 488.49799 185.686513 
L 493.717827 192.42 
L 493.717827 192.42 
" clip-path="url(#p15c14b91b1)" style="fill: none; stroke: #2a78d6; stroke-width: 2; stroke-linecap: square"/>
   </g>
   <g id="line2d_20">
    <path d="M 67.608736 184.02 
L 68.674009 184.133739 
L 69.739281 184.471902 
L 70.911081 185.092088 
L 72.189409 186.041825 
L 73.574263 187.350489 
L 75.278699 189.273713 
L 77.835354 192.314145 
L 81.031172 188.31856 
L 82.735609 186.528261 
L 84.120463 185.365172 
L 85.39879 184.574468 
L 86.57059 184.1162 
L 87.635863 183.934674 
L 88.701136 183.98278 
L 89.766409 184.259771 
L 90.831681 184.758751 
L 92.003481 185.548486 
L 93.388336 186.773195 
L 94.986245 188.509463 
L 97.11679 191.187793 
L 98.075536 192.379396 
L 101.377881 188.143491 
L 103.082318 186.305102 
L 104.467172 185.109284 
L 105.745499 184.29571 
L 106.917299 183.824229 
L 107.982572 183.638162 
L 109.047845 183.689587 
L 110.113118 183.97828 
L 111.17839 184.497637 
L 112.35019 185.319847 
L 113.628518 186.487279 
L 115.226427 188.277593 
L 117.250445 190.915136 
L 118.315718 192.391653 
L 118.635299 192.001638 
L 121.831118 187.722675 
L 123.535554 185.810908 
L 124.920409 184.574722 
L 126.092209 183.799165 
L 127.157481 183.33418 
L 128.222754 183.112714 
L 129.181499 183.128193 
L 130.140245 183.348391 
L 131.205518 183.828882 
L 132.377318 184.631024 
L 133.655645 185.8055 
L 135.147027 187.514317 
L 136.95799 189.958787 
L 138.662427 192.366667 
L 142.177827 187.272473 
L 143.882263 185.203463 
L 145.267118 183.862169 
L 146.438918 183.018635 
L 147.50419 182.511524 
L 148.462936 182.280857 
L 149.421681 182.271539 
L 150.380427 182.485924 
L 151.339172 182.921521 
L 152.404445 183.655894 
L 153.576245 184.748206 
L 154.961099 186.380064 
L 156.559009 188.634749 
L 158.796081 192.217637 
L 158.902609 192.394687 
L 159.328718 191.7353 
L 162.524536 186.601921 
L 164.228972 184.287518 
L 165.613827 182.781117 
L 166.785627 181.829715 
L 167.850899 181.2545 
L 168.809645 180.989704 
L 169.76839 180.973908 
L 170.620609 181.171973 
L 171.579354 181.632063 
L 172.538099 182.336819 
L 173.603372 183.391994 
L 174.881699 185.002688 
L 176.373081 187.285057 
L 178.290572 190.682928 
L 179.249318 192.342379 
L 183.084299 185.221748 
L 184.682209 182.733644 
L 185.960536 181.115879 
L 187.132336 179.990421 
L 188.091081 179.356242 
L 188.943299 179.02552 
L 189.795518 178.923747 
L 190.647736 179.056319 
L 191.499954 179.424718 
L 192.352172 180.026424 
L 193.310918 180.973921 
L 194.37619 182.344337 
L 195.654518 184.388506 
L 197.145899 187.23648 
L 199.06339 191.418294 
L 199.489499 192.39658 
L 200.022136 191.208171 
L 203.537536 183.290501 
L 205.135445 180.245637 
L 206.413772 178.259273 
L 207.479045 176.980987 
L 208.43779 176.162647 
L 209.290009 175.721047 
L 210.035699 175.566578 
L 210.78139 175.635179 
L 211.527081 175.930292 
L 212.272772 176.452504 
L 213.12499 177.324275 
L 214.083736 178.645429 
L 215.149009 180.513087 
L 216.427336 183.257234 
L 217.918718 187.041075 
L 219.836209 192.283057 
L 224.736463 177.892362 
L 226.227845 174.364988 
L 227.399645 172.140606 
L 228.35839 170.750974 
L 229.210609 169.879477 
L 229.956299 169.419129 
L 230.595463 169.260346 
L 231.234627 169.326543 
L 231.87379 169.622678 
L 232.512954 170.151724 
L 233.258645 171.064426 
L 234.110863 172.494149 
L 235.069609 174.583538 
L 236.134881 177.473409 
L 237.413209 181.662794 
L 238.90459 187.397059 
L 240.07639 192.39762 
L 241.035136 188.129466 
L 245.722336 167.148096 
L 247.213718 161.688162 
L 248.385518 158.225268 
L 249.344263 156.058636 
L 250.089954 154.845449 
L 250.729118 154.163942 
L 251.261754 153.864309 
L 251.79439 153.820011 
L 252.327027 154.040686 
L 252.859663 154.534874 
L 253.498827 155.499244 
L 254.13799 156.878477 
L 254.883681 159.022183 
L 255.735899 162.186043 
L 256.694645 166.658579 
L 257.759918 172.749898 
L 258.931718 180.772842 
L 260.423099 191.976254 
L 262.021009 176.940159 
L 263.938499 156.598695 
L 266.708209 124.452252 
L 270.862772 76.232372 
L 272.780263 56.590363 
L 274.271645 43.379227 
L 275.549972 33.840252 
L 276.721772 26.743473 
L 277.680518 22.209962 
L 278.532736 19.194601 
L 279.278427 17.365468 
L 279.811063 16.530251 
L 280.343699 16.091807 
L 280.769809 16.027979 
L 281.195918 16.219422 
L 281.622027 16.665638 
L 282.154663 17.579855 
L 282.793827 19.194601 
L 283.539518 21.780004 
L 284.391736 25.634241 
L 285.350481 31.068807 
L 286.415754 38.387456 
L 287.694081 48.786904 
L 289.185463 62.844729 
L 290.996427 82.099949 
L 293.766136 114.302763 
L 297.920699 162.459291 
L 299.944718 183.191143 
L 300.903463 191.976254 
L 301.00999 191.934417 
L 302.501372 179.987977 
L 303.779699 171.438455 
L 304.951499 165.060589 
L 306.016772 160.508572 
L 306.86899 157.726212 
L 307.614681 155.912451 
L 308.360372 154.667203 
L 308.999536 154.040686 
L 309.532172 153.820011 
L 310.064809 153.864309 
L 310.597445 154.163942 
L 311.236609 154.845449 
L 311.982299 156.058636 
L 312.834518 157.953024 
L 313.793263 160.662977 
L 314.965063 164.683206 
L 316.456445 170.671944 
L 318.693518 180.737695 
L 321.250172 192.39762 
L 323.167663 184.428198 
L 324.659045 179.128551 
L 325.937372 175.389455 
L 327.002645 172.915073 
L 327.96139 171.220708 
L 328.813609 170.151724 
L 329.559299 169.557203 
L 330.198463 169.299652 
L 330.837627 169.271348 
L 331.47679 169.467012 
L 332.222481 169.968697 
L 332.968172 170.750974 
L 333.82039 171.966037 
L 334.885663 173.921163 
L 336.057463 176.554542 
L 337.548845 180.479435 
L 339.785918 187.095005 
L 341.490354 192.283057 
L 341.596881 192.237709 
L 343.833954 185.904656 
L 345.325336 182.285981 
L 346.603663 179.717563 
L 347.668936 178.014735 
L 348.627681 176.852098 
L 349.479899 176.126358 
L 350.332118 175.696303 
L 351.077809 175.563213 
L 351.823499 175.654462 
L 352.56919 175.964623 
L 353.421409 176.576637 
L 354.380154 177.573944 
L 355.445427 179.031244 
L 356.723754 181.199336 
L 358.321663 184.412617 
L 360.665263 189.718458 
L 361.837063 192.39658 
L 364.28719 187.019068 
L 365.885099 184.02 
L 367.163427 182.044747 
L 368.335227 180.627028 
L 369.400499 179.696722 
L 370.359245 179.16688 
L 371.211463 178.945833 
L 372.063681 178.960152 
L 372.915899 179.205893 
L 373.768118 179.675286 
L 374.726863 180.456341 
L 375.792136 181.612954 
L 377.070463 183.351849 
L 378.561845 185.768779 
L 380.69239 189.685385 
L 382.077245 192.342379 
L 382.183772 192.293975 
L 384.740427 187.640716 
L 386.338336 185.152349 
L 387.72319 183.391994 
L 388.89499 182.24676 
L 389.960263 181.508357 
L 390.919009 181.103734 
L 391.877754 180.95117 
L 392.729972 181.027262 
L 393.688718 181.34636 
L 394.647463 181.902843 
L 395.712736 182.781117 
L 396.884536 184.031442 
L 398.26939 185.832747 
L 400.080354 188.576986 
L 402.423954 192.394687 
L 405.193663 188.001004 
L 406.898099 185.712403 
L 408.282954 184.216477 
L 409.454754 183.256604 
L 410.520027 182.652537 
L 411.478772 182.339239 
L 412.437518 182.249137 
L 413.396263 182.382025 
L 414.355009 182.732893 
L 415.420281 183.366499 
L 416.592081 184.336812 
L 417.976936 185.806057 
L 419.574845 187.846229 
L 421.918445 191.245769 
L 422.664136 192.366667 
L 422.87719 192.153606 
L 425.646899 188.197944 
L 427.351336 186.143343 
L 428.73619 184.806012 
L 429.90799 183.953939 
L 430.973263 183.424871 
L 432.038536 183.142574 
L 432.997281 183.104319 
L 433.956027 183.270061 
L 435.021299 183.687281 
L 436.193099 184.414208 
L 437.471427 185.49755 
L 438.962809 187.085907 
L 440.773772 189.363302 
L 443.010845 192.391653 
L 445.993609 188.407767 
L 447.698045 186.487279 
L 449.082899 185.234821 
L 450.361227 184.375841 
L 451.533027 183.86703 
L 452.598299 183.649112 
L 453.663572 183.669202 
L 454.728845 183.925608 
L 455.794118 184.410327 
L 456.965918 185.190249 
L 458.244245 186.305102 
L 459.842154 188.018859 
L 461.972699 190.682127 
L 463.251027 192.379396 
L 463.464081 192.176495 
L 466.446845 188.384798 
L 468.151281 186.566116 
L 469.536136 185.387109 
L 470.814463 184.586402 
L 471.986263 184.121813 
L 473.051536 183.935891 
L 474.116809 183.979895 
L 475.182081 184.252101 
L 476.247354 184.744672 
L 477.419154 185.524475 
L 478.804009 186.732347 
L 480.401918 188.441108 
L 482.63899 191.206263 
L 483.597736 192.386921 
L 486.793554 188.396965 
L 488.49799 186.612818 
L 489.882845 185.454941 
L 491.161172 184.668172 
L 492.332972 184.211921 
L 493.398245 184.030257 
L 493.717827 184.02 
L 493.717827 184.02 
" clip-path="url(#p15c14b91b1)" style="fill: none; stroke: #eb6834; stroke-width: 2; stroke-linecap: square"/>
   </g>
   <g id="line2d_21">
    <path d="M 67.608736 190.673465 
L 68.141372 190.809037 
L 68.674009 191.194713 
L 69.419699 192.034956 
L 69.739281 192.392563 
L 70.804554 191.155909 
L 71.443718 190.743683 
L 71.976354 190.683263 
L 72.50899 190.892485 
L 73.148154 191.451152 
L 74.000372 192.337636 
L 75.065645 191.117048 
L 75.704809 190.726693 
L 76.237445 190.687579 
L 76.770081 190.917464 
L 77.409245 191.495688 
L 78.154936 192.418624 
L 79.326736 191.078052 
L 79.859372 190.74588 
L 80.392009 190.673465 
L 80.924645 190.872241 
L 81.563809 191.422843 
L 82.416027 192.366191 
L 83.481299 191.129586 
L 84.120463 190.724643 
L 84.653099 190.673465 
L 85.185736 190.893515 
L 85.824899 191.465161 
L 86.677118 192.310624 
L 87.74239 191.087116 
L 88.381554 190.703242 
L 88.91419 190.673465 
L 89.446827 190.914964 
L 90.08599 191.507841 
L 90.831681 192.394943 
L 91.896954 191.13765 
L 92.536118 190.71644 
L 93.068754 190.652821 
L 93.60139 190.86366 
L 94.240554 191.430668 
L 95.092772 192.338806 
L 96.158045 191.091528 
L 96.797209 190.690509 
L 97.329845 190.648332 
L 97.862481 190.881368 
L 98.501645 191.471268 
L 99.247336 192.41577 
L 100.525663 190.956928 
L 101.058299 190.66422 
L 101.590936 190.64378 
L 102.123572 190.899329 
L 102.762736 191.512464 
L 103.508427 192.367422 
L 104.573699 191.091235 
L 105.212863 190.671143 
L 105.745499 190.616056 
L 106.278136 190.841218 
L 106.917299 191.430177 
L 107.769518 192.309639 
L 108.83479 191.040334 
L 109.367427 190.680582 
L 109.900063 190.590307 
L 110.432699 190.784217 
L 110.965336 191.2329 
L 111.924081 192.396827 
L 112.030609 192.250737 
L 112.989354 191.086086 
L 113.628518 190.6447 
L 114.161154 190.576018 
L 114.69379 190.793818 
L 115.332954 191.383921 
L 116.185172 192.338006 
L 117.250445 191.030665 
L 117.783081 190.652079 
L 118.315718 190.54722 
L 118.741827 190.673465 
L 119.274463 191.07408 
L 120.020154 191.968312 
L 120.339736 192.412588 
L 121.72459 190.79771 
L 122.257227 190.541876 
L 122.683336 190.546425 
L 123.215972 190.81371 
L 123.855136 191.458947 
L 124.600827 192.367422 
L 125.666099 191.015425 
L 126.305263 190.567932 
L 126.731372 190.495101 
L 127.157481 190.614499 
L 127.690118 191.014989 
L 128.435809 191.924733 
L 128.75539 192.380379 
L 128.968445 192.152428 
L 129.92719 190.953269 
L 130.459827 190.567926 
L 130.885936 190.464514 
L 131.312045 190.556297 
L 131.844681 190.930678 
L 132.483845 191.680007 
L 133.016481 192.398324 
L 134.081754 190.994116 
L 134.720918 190.518651 
L 135.147027 190.432773 
L 135.573136 190.545323 
L 136.105772 190.947121 
L 136.851463 191.876639 
L 137.277572 192.334977 
L 138.342845 190.925915 
L 138.875481 190.515703 
L 139.30159 190.397897 
L 139.727699 190.481892 
L 140.260336 190.857129 
L 140.899499 191.622885 
L 141.432136 192.408776 
L 142.923518 190.583577 
L 143.456154 190.364544 
L 143.882263 190.418811 
L 144.414899 190.765963 
L 145.054063 191.517026 
L 145.693227 192.366041 
L 146.758499 190.890983 
L 147.291136 190.452499 
L 147.717245 190.318745 
L 148.143354 190.394634 
L 148.67599 190.772133 
L 149.315154 191.558373 
L 149.84779 192.373264 
L 149.954318 192.298143 
L 151.01959 190.812722 
L 151.552227 190.387034 
L 151.978336 190.270975 
L 152.404445 190.36941 
L 152.937081 190.778573 
L 153.576245 191.601546 
L 154.108881 192.399513 
L 155.174154 190.847349 
L 155.70679 190.376485 
L 156.132899 190.224856 
L 156.559009 190.292163 
L 156.985118 190.572729 
L 157.624281 191.32907 
L 158.369972 192.329083 
L 159.435245 190.760316 
L 159.967881 190.30089 
L 160.39399 190.16699 
L 160.820099 190.257895 
L 161.246209 190.565668 
L 161.885372 191.363771 
L 162.524536 192.403862 
L 164.122445 190.285258 
L 164.548554 190.113347 
L 164.974663 190.171395 
L 165.400772 190.454856 
L 165.933409 191.082887 
L 166.785627 192.362879 
L 167.850899 190.696142 
L 168.383536 190.197618 
L 168.809645 190.043404 
L 169.235754 190.126235 
L 169.661863 190.439206 
L 170.194499 191.106409 
L 170.94019 192.363132 
L 171.046718 192.285369 
L 172.11199 190.593022 
L 172.644627 190.104767 
L 173.070736 189.969275 
L 173.496845 190.078354 
L 173.922954 190.422607 
L 174.562118 191.302058 
L 175.201281 192.400447 
L 176.266554 190.617716 
L 176.79919 190.073399 
L 177.225299 189.895722 
L 177.651409 189.969699 
L 178.077518 190.289589 
L 178.610154 190.986833 
L 179.462372 192.318986 
L 180.527645 190.500583 
L 181.060281 189.96427 
L 181.48639 189.805292 
L 181.912499 189.907137 
L 182.338609 190.261445 
L 182.871245 191.005856 
L 183.616936 192.396999 
L 183.723463 192.231791 
L 184.682209 190.521645 
L 185.214845 189.92303 
L 185.640954 189.717825 
L 186.067063 189.781849 
L 186.493172 190.110708 
L 187.025809 190.844757 
L 187.878027 192.357059 
L 188.943299 190.387215 
L 189.475936 189.793557 
L 189.902045 189.60684 
L 190.328154 189.700588 
L 190.754263 190.067654 
L 191.286899 190.855796 
L 192.03259 192.347803 
L 192.139118 192.264226 
L 193.20439 190.241826 
L 193.737027 189.65344 
L 194.163136 189.48667 
L 194.589245 189.612557 
L 195.015354 190.020988 
L 195.54799 190.867769 
L 196.293681 192.401167 
L 197.358954 190.246923 
L 197.89159 189.583731 
L 198.317699 189.363612 
L 198.637281 189.398137 
L 199.06339 189.70884 
L 199.596027 190.477554 
L 200.341718 192.042467 
L 200.554772 192.301792 
L 201.620045 190.076076 
L 202.152681 189.413576 
L 202.57879 189.213009 
L 202.898372 189.272357 
L 203.324481 189.627318 
L 203.857118 190.463297 
L 204.709336 192.386429 
L 204.815863 192.192642 
L 205.774609 190.070984 
L 206.307245 189.321835 
L 206.733354 189.060575 
L 207.052936 189.083706 
L 207.372518 189.295791 
L 207.798627 189.852858 
L 208.43779 191.158616 
L 208.970427 192.346564 
L 210.035699 189.866556 
L 210.568336 189.11141 
L 210.994445 188.868704 
L 211.314027 188.91863 
L 211.633609 189.167147 
L 212.059718 189.784484 
L 212.698881 191.193805 
L 213.12499 192.322363 
L 213.231518 192.227386 
L 214.29679 189.638426 
L 214.829427 188.876351 
L 215.255536 188.654196 
L 215.575118 188.733964 
L 215.894699 189.023147 
L 216.320809 189.707885 
L 216.959972 191.233278 
L 217.386081 192.401702 
L 218.451354 189.595868 
L 218.98399 188.721761 
L 219.410099 188.424884 
L 219.729681 188.462703 
L 220.049263 188.725022 
L 220.475372 189.400412 
L 221.114536 190.970651 
L 221.647172 192.270334 
L 222.712445 189.311486 
L 223.245081 188.418658 
L 223.67119 188.140183 
L 223.990772 188.210851 
L 224.310354 188.520767 
L 224.736463 189.278392 
L 225.375627 190.996194 
L 225.801736 192.367717 
L 226.121318 191.419175 
L 226.973536 188.984937 
L 227.506172 188.070103 
L 227.825754 187.834248 
L 228.145336 187.855617 
L 228.464918 188.135978 
L 228.891027 188.888412 
L 229.423663 190.33354 
L 230.062827 192.325916 
L 231.128099 188.868328 
L 231.660736 187.79793 
L 231.980318 187.485691 
L 232.299899 187.449361 
L 232.619481 187.694499 
L 233.04559 188.439163 
L 233.578227 189.939799 
L 234.21739 192.272953 
L 234.323918 192.153992 
L 235.38919 188.435174 
L 235.921827 187.31879 
L 236.241409 187.013614 
L 236.56099 187.01101 
L 236.880572 187.315366 
L 237.306681 188.173924 
L 237.839318 189.858562 
L 238.478481 192.402071 
L 239.543754 188.238027 
L 240.07639 186.913109 
L 240.395972 186.507977 
L 240.715554 186.432345 
L 241.035136 186.695636 
L 241.354718 187.288259 
L 241.780827 188.539139 
L 242.41999 191.151901 
L 242.739572 192.201341 
L 243.804845 187.628034 
L 244.337481 186.21204 
L 244.657063 185.801986 
L 244.870118 185.732687 
L 245.083172 185.83151 
L 245.402754 186.292689 
L 245.828863 187.456062 
L 246.361499 189.63775 
L 246.894136 192.325365 
L 247.213718 190.826447 
L 248.065936 186.862954 
L 248.598572 185.329628 
L 248.918154 184.911457 
L 249.131209 184.864481 
L 249.344263 185.0079 
L 249.663845 185.576396 
L 250.089954 186.951168 
L 250.729118 190.068059 
L 251.155227 192.273839 
L 252.327027 185.872792 
L 252.859663 184.182461 
L 253.179245 183.750522 
L 253.392299 183.730516 
L 253.605354 183.93013 
L 253.924936 184.636329 
L 254.351045 186.285905 
L 254.990209 189.963558 
L 255.30979 192.139553 
L 255.416318 191.95323 
L 256.48159 185.068542 
L 257.014227 182.900082 
L 257.333809 182.260154 
L 257.546863 182.144364 
L 257.759918 182.28689 
L 258.079499 182.985861 
L 258.505609 184.778932 
L 259.038245 188.186158 
L 259.570881 192.402287 
L 260.742681 183.266189 
L 261.275318 180.707508 
L 261.594899 179.979743 
L 261.807954 179.874611 
L 262.021009 180.085744 
L 262.34059 180.997481 
L 262.766699 183.271921 
L 263.299336 187.554319 
L 263.831972 191.954622 
L 265.003772 180.491525 
L 265.536409 177.289944 
L 265.85599 176.397445 
L 266.069045 176.289921 
L 266.282099 176.590305 
L 266.601681 177.813055 
L 267.02779 180.829795 
L 267.560427 186.514325 
L 267.986536 192.140745 
L 268.19959 189.693801 
L 269.264863 175.654068 
L 269.797499 171.206176 
L 270.117081 169.935166 
L 270.330136 169.763522 
L 270.54319 170.165634 
L 270.862772 171.872487 
L 271.288881 176.177369 
L 271.821518 184.476057 
L 272.247627 191.955454 
L 273.845536 159.941942 
L 274.271645 155.384822 
L 274.591227 154.102285 
L 274.697754 154.138243 
L 274.910809 154.956833 
L 275.23039 158.14741 
L 275.656499 166.220578 
L 276.189136 182.4153 
L 276.40219 190.673465 
L 276.508718 189.688859 
L 277.254409 152.994966 
L 279.384954 41.476419 
L 279.91759 24.945388 
L 280.343699 17.680123 
L 280.556754 16.204923 
L 280.663281 16.02 
L 280.769809 16.204923 
L 280.982863 17.680123 
L 281.302445 22.604314 
L 281.728554 33.944882 
L 282.26119 54.792396 
L 283.113409 98.824277 
L 284.817845 189.688859 
L 284.924372 190.673465 
L 285.563536 168.926321 
L 286.096172 158.14741 
L 286.415754 154.956833 
L 286.628809 154.138243 
L 286.735336 154.102285 
L 286.94839 154.735258 
L 287.267972 157.295757 
L 287.694081 163.218865 
L 288.439772 178.010037 
L 289.078936 191.955454 
L 289.29199 188.527756 
L 290.037681 176.177369 
L 290.46379 171.872487 
L 290.783372 170.165634 
L 290.996427 169.763522 
L 291.102954 169.779028 
L 291.316009 170.228173 
L 291.63559 171.880191 
L 292.061699 175.654068 
L 292.700863 183.653788 
L 293.340027 192.140745 
L 294.192245 181.8123 
L 294.724881 177.813055 
L 295.044463 176.590305 
L 295.257518 176.289921 
L 295.470572 176.397445 
L 295.683627 176.898648 
L 296.003209 178.335448 
L 296.429318 181.345592 
L 297.175009 188.570446 
L 297.49459 191.954622 
L 297.601118 191.77046 
L 298.453336 184.013234 
L 298.985972 180.997481 
L 299.305554 180.085744 
L 299.518609 179.874611 
L 299.731663 179.979743 
L 299.944718 180.391572 
L 300.264299 181.545713 
L 300.690409 183.94678 
L 301.436099 189.703685 
L 301.755681 192.402287 
L 302.714427 185.367285 
L 303.247063 182.985861 
L 303.566645 182.28689 
L 303.779699 182.144364 
L 303.992754 182.260154 
L 304.312336 182.900082 
L 304.738445 184.538001 
L 305.377609 188.261452 
L 306.016772 192.139553 
L 306.86899 186.811098 
L 307.401627 184.636329 
L 307.827736 183.802842 
L 308.04079 183.713181 
L 308.253845 183.841889 
L 308.573427 184.428751 
L 308.999536 185.872792 
L 309.638699 189.100819 
L 310.171336 192.273839 
L 310.38439 191.294163 
L 311.236609 186.951168 
L 311.769245 185.340654 
L 312.088827 184.912346 
L 312.301881 184.86429 
L 312.514936 185.005378 
L 312.834518 185.557342 
L 313.260627 186.862954 
L 313.89979 189.727771 
L 314.432427 192.325365 
L 315.391172 187.834972 
L 315.923809 186.292689 
L 316.24339 185.83151 
L 316.562972 185.746454 
L 316.882554 186.035745 
L 317.202136 186.67684 
L 317.734772 188.406259 
L 318.58699 192.201341 
L 318.693518 192.137548 
L 319.652263 188.181851 
L 320.184899 186.857607 
L 320.504481 186.48253 
L 320.824063 186.445303 
L 321.143645 186.7428 
L 321.569754 187.620117 
L 322.10239 189.343448 
L 322.848081 192.402071 
L 324.019881 188.173924 
L 324.44599 187.315366 
L 324.765572 187.01101 
L 325.085154 187.013614 
L 325.404736 187.31879 
L 325.830845 188.157453 
L 326.363481 189.762956 
L 327.109172 192.272953 
L 328.067918 188.972571 
L 328.600554 187.837436 
L 329.026663 187.449361 
L 329.346245 187.485691 
L 329.665827 187.79793 
L 330.091936 188.60528 
L 330.731099 190.462741 
L 331.263736 192.325916 
L 331.47679 191.758638 
L 332.329009 189.137481 
L 332.861645 188.135978 
L 333.181227 187.855617 
L 333.500809 187.834248 
L 333.82039 188.070103 
L 334.246499 188.754884 
L 334.779136 190.095079 
L 335.524827 192.367717 
L 336.483572 189.522426 
L 337.016209 188.520767 
L 337.442318 188.160359 
L 337.761899 188.170435 
L 338.081481 188.418658 
L 338.50759 189.089959 
L 339.146754 190.667504 
L 339.785918 192.241371 
L 340.744663 189.621298 
L 341.277299 188.725022 
L 341.703409 188.424892 
L 342.02299 188.462524 
L 342.342572 188.721761 
L 342.768681 189.38168 
L 343.407845 190.891158 
L 343.940481 192.401702 
L 345.325336 189.163913 
L 345.751445 188.733964 
L 346.071027 188.654196 
L 346.390609 188.786434 
L 346.816718 189.274806 
L 347.349354 190.307006 
L 348.201572 192.322363 
L 349.160318 189.984203 
L 349.692954 189.167147 
L 350.119063 188.879632 
L 350.438645 188.896718 
L 350.758227 189.11141 
L 351.184336 189.679923 
L 351.823499 191.005149 
L 352.356136 192.346564 
L 352.56919 191.946761 
L 353.421409 190.035997 
L 353.954045 189.295791 
L 354.380154 189.054788 
L 354.699736 189.095134 
L 355.125845 189.436653 
L 355.658481 190.268134 
L 356.617227 192.386429 
L 356.723754 192.126364 
L 357.682499 190.082591 
L 358.215136 189.411627 
L 358.641245 189.212624 
L 358.960827 189.274029 
L 359.386936 189.627778 
L 359.919572 190.448227 
L 360.878318 192.289638 
L 361.837063 190.294295 
L 362.369699 189.603793 
L 362.795809 189.367374 
L 363.11539 189.390549 
L 363.541499 189.684096 
L 364.074136 190.423378 
L 364.819827 191.926791 
L 365.032881 192.401167 
L 366.524263 189.783224 
L 366.950372 189.512975 
L 367.376481 189.533991 
L 367.80259 189.841723 
L 368.335227 190.576892 
L 369.293972 192.347803 
L 370.252718 190.502476 
L 370.785354 189.851499 
L 371.211463 189.618441 
L 371.637572 189.665798 
L 372.063681 189.986645 
L 372.596318 190.718129 
L 373.448536 192.357059 
L 373.555063 192.263952 
L 374.513809 190.513471 
L 375.046445 189.914507 
L 375.472554 189.71582 
L 375.898663 189.787561 
L 376.324772 190.120593 
L 376.857409 190.848754 
L 377.709627 192.396999 
L 378.774899 190.523663 
L 379.307536 189.972945 
L 379.733645 189.80618 
L 380.159754 189.900603 
L 380.585863 190.245004 
L 381.118499 190.970149 
L 381.970718 192.317054 
L 382.929463 190.673465 
L 383.462099 190.100249 
L 383.888209 189.901018 
L 384.314318 189.953737 
L 384.740427 190.25151 
L 385.273063 190.918709 
L 386.125281 192.400447 
L 386.231809 192.242358 
L 387.190554 190.673465 
L 387.72319 190.143271 
L 388.149299 189.973564 
L 388.575409 190.048376 
L 389.001518 190.358757 
L 389.534154 191.026792 
L 390.386372 192.363132 
L 391.451645 190.673465 
L 391.984281 190.183692 
L 392.41039 190.04175 
L 392.836499 190.13736 
L 393.262609 190.459635 
L 393.901772 191.289706 
L 394.540936 192.362879 
L 394.647463 192.29116 
L 395.606209 190.79985 
L 396.138845 190.286135 
L 396.564954 190.113366 
L 396.991063 190.17118 
L 397.417172 190.452568 
L 397.949809 191.072312 
L 398.802027 192.403862 
L 399.867299 190.792393 
L 400.399936 190.315309 
L 400.826045 190.168566 
L 401.252154 190.246755 
L 401.678263 190.540947 
L 402.317427 191.31565 
L 403.063118 192.334379 
L 404.12839 190.785314 
L 404.661027 190.343015 
L 405.087136 190.221002 
L 405.513245 190.318571 
L 406.045881 190.730908 
L 406.685045 191.558864 
L 407.217681 192.399513 
L 407.856845 191.445638 
L 408.602536 190.579454 
L 409.135172 190.293433 
L 409.561281 190.302479 
L 409.98739 190.522401 
L 410.520027 191.057223 
L 411.478772 192.373264 
L 412.544045 190.881275 
L 413.076681 190.446038 
L 413.50279 190.317965 
L 413.928899 190.399833 
L 414.461536 190.781698 
L 415.100699 191.563959 
L 415.739863 192.308908 
L 416.805136 190.86896 
L 417.337772 190.464321 
L 417.763881 190.358718 
L 418.18999 190.458902 
L 418.722627 190.855205 
L 419.36179 191.639841 
L 419.894427 192.408776 
L 420.959699 190.964146 
L 421.492336 190.533966 
L 421.918445 190.39993 
L 422.344554 190.467676 
L 422.87719 190.822839 
L 423.516354 191.565708 
L 424.155518 192.346026 
L 425.22079 190.947121 
L 425.753427 190.545323 
L 426.179536 190.432773 
L 426.605645 190.518651 
L 427.138281 190.88915 
L 427.777445 191.63689 
L 428.310081 192.398324 
L 428.842718 191.680007 
L 429.588409 190.834721 
L 430.121045 190.515187 
L 430.547154 190.472163 
L 430.973263 190.623418 
L 431.505899 191.060069 
L 432.25159 192.000699 
L 432.571172 192.380379 
L 433.636445 191.014989 
L 434.169081 190.614499 
L 434.701718 190.495265 
L 435.127827 190.615677 
L 435.660463 191.015425 
L 436.406154 191.917596 
L 436.832263 192.32092 
L 437.897536 190.994516 
L 438.430172 190.619678 
L 438.962809 190.525131 
L 439.388918 190.662064 
L 439.921554 191.075824 
L 440.667245 191.981859 
L 440.986827 192.412588 
L 442.052099 191.07408 
L 442.691263 190.624719 
L 443.223899 190.554205 
L 443.650009 190.707233 
L 444.182645 191.134654 
L 445.034863 192.190563 
L 445.247918 192.354123 
L 446.31319 191.050009 
L 446.952354 190.629636 
L 447.48499 190.582575 
L 448.017627 190.820501 
L 448.65679 191.426355 
L 449.402481 192.396827 
L 449.509009 192.297015 
L 450.574281 191.026484 
L 451.106918 190.673465 
L 451.639554 190.592144 
L 452.17219 190.794439 
L 452.704827 191.248281 
L 453.663572 192.385591 
L 453.770099 192.241107 
L 454.728845 191.098245 
L 455.368009 190.673465 
L 455.900645 190.615076 
L 456.433281 190.836711 
L 457.072445 191.420265 
L 457.924663 192.3291 
L 458.989936 191.071399 
L 459.629099 190.673465 
L 460.161736 190.637599 
L 460.694372 190.878241 
L 461.333536 191.475984 
L 462.079227 192.41577 
L 463.144499 191.14009 
L 463.783663 190.709593 
L 464.316299 190.640087 
L 464.848936 190.846787 
L 465.488099 191.410858 
L 466.340318 192.359805 
L 467.40559 191.11012 
L 468.044754 190.705101 
L 468.57739 190.657748 
L 469.110027 190.883847 
L 469.74919 191.46348 
L 470.601409 192.304555 
L 471.666681 191.080517 
L 472.199318 190.738682 
L 472.731954 190.65813 
L 473.26459 190.851034 
L 473.903754 191.398127 
L 474.755972 192.389526 
L 475.821245 191.14327 
L 476.460409 190.72992 
L 476.993045 190.671191 
L 477.525681 190.883884 
L 478.164845 191.44786 
L 479.017063 192.334485 
L 480.082336 191.110577 
L 480.721499 190.721228 
L 481.254136 190.68415 
L 481.786772 190.916487 
L 482.425936 191.497235 
L 483.171627 192.418624 
L 484.236899 191.171341 
L 484.876063 190.748338 
L 485.408699 190.678209 
L 485.941336 190.878456 
L 486.580499 191.429003 
L 487.432718 192.363709 
L 488.49799 191.135599 
L 489.137154 190.735497 
L 489.66979 190.686811 
L 490.202427 190.907177 
L 490.84159 191.475855 
L 491.693809 192.308953 
L 492.759081 191.099943 
L 493.398245 190.722683 
L 493.717827 190.673465 
L 493.717827 190.673465 
" clip-path="url(#p15c14b91b1)" style="fill: none; stroke: #1baf7a; stroke-width: 2; stroke-linecap: square"/>
   </g>
   <g id="patch_3">
    <path d="M 46.303281 201.24 
L 46.303281 7.2 
" style="fill: none; stroke: #c3c2b7; stroke-linejoin: miter; stroke-linecap: square"/>
   </g>
   <g id="patch_4">
    <path d="M 46.303281 201.24 
L 515.023281 201.24 
" style="fill: none; stroke: #c3c2b7; stroke-linejoin: miter; stroke-linecap: square"/>
   </g>
   <g id="patch_5">
    <path d="M 304.676357 19.276557 
Q 293.662059 17.782842 283.755653 16.439375 
" style="fill: none; stroke: #898781; stroke-linecap: round"/>
    <path d="M 287.081103 18.706836 
L 283.755653 16.439375 
L 287.564892 15.139492 
" style="fill: none; stroke: #898781; stroke-linecap: round"/>
   </g>
   <g id="text_12">
    <text style="font-size: 9px; font-family: 'Helvetica Neue', 'Arial', 'DejaVu Sans', sans-serif; fill: #52514e" transform="translate(308.663281 23.283)">only ΔE = 0 survives</text>
    <text style="font-size: 9px; font-family: 'Helvetica Neue', 'Arial', 'DejaVu Sans', sans-serif; fill: #52514e" transform="translate(308.663281 34.02)">as windings → ∞</text>
   </g>
   <g id="legend_1">
    <g id="line2d_22">
     <path d="M 428.382813 20.718 
L 437.382813 20.718 
L 446.382813 20.718 
" style="fill: none; stroke: #2a78d6; stroke-width: 2; stroke-linecap: square"/>
    </g>
    <g id="text_13">
     <text style="font-size: 9px; font-family: 'Helvetica Neue', 'Arial', 'DejaVu Sans', sans-serif; text-anchor: start" x="453.582813" y="23.868" transform="rotate(-0 453.582813 23.868)">5 windings</text>
    </g>
    <g id="line2d_23">
     <path d="M 428.382813 35.703 
L 437.382813 35.703 
L 446.382813 35.703 
" style="fill: none; stroke: #eb6834; stroke-width: 2; stroke-linecap: square"/>
    </g>
    <g id="text_14">
     <text style="font-size: 9px; font-family: 'Helvetica Neue', 'Arial', 'DejaVu Sans', sans-serif; text-anchor: start" x="453.582813" y="38.853" transform="rotate(-0 453.582813 38.853)">20 windings</text>
    </g>
    <g id="line2d_24">
     <path d="M 428.382813 50.688 
L 437.382813 50.688 
L 446.382813 50.688 
" style="fill: none; stroke: #1baf7a; stroke-width: 2; stroke-linecap: square"/>
    </g>
    <g id="text_15">
     <text style="font-size: 9px; font-family: 'Helvetica Neue', 'Arial', 'DejaVu Sans', sans-serif; text-anchor: start" x="453.582813" y="53.838" transform="rotate(-0 453.582813 53.838)">100 windings</text>
    </g>
   </g>
  </g>
 </g>
 <defs>
  <clipPath id="p15c14b91b1">
   <rect x="46.303281" y="7.2" width="468.72" height="194.04"/>
  </clipPath>
 </defs>
</svg>
